<mxfile host="app.diagrams.net" modified="2022-01-05T15:56:41.215Z" agent="5.0 (Macintosh; Intel Mac OS X 10_15_7) AppleWebKit/537.36 (KHTML, like Gecko) Chrome/96.0.4664.110 Safari/537.36" etag="suc0f8-NBXwGJ76GQPPC" version="16.1.4" type="github" pages="2">
  <diagram id="2f404044-711c-603c-8f00-f6bb4c023d3c" name="Page-1">
    <mxGraphModel dx="946" dy="614" grid="1" gridSize="10" guides="1" tooltips="1" connect="1" arrows="1" fold="1" page="1" pageScale="1" pageWidth="1169" pageHeight="827" background="none" math="0" shadow="0">
      <root>
        <mxCell id="0" />
        <mxCell id="1" parent="0" />
        <mxCell id="21" value="" style="swimlane;shadow=0;strokeColor=#4277BB;fillColor=#ffffff;fontColor=none;align=right;startSize=0;collapsible=0;noLabel=1;strokeWidth=3;" parent="1" vertex="1">
          <mxGeometry x="65" y="49" width="1040" height="730" as="geometry" />
        </mxCell>
        <mxCell id="23" style="edgeStyle=orthogonalEdgeStyle;rounded=0;html=1;labelBackgroundColor=#ffffff;jettySize=auto;orthogonalLoop=1;strokeColor=#EDC11C;fontColor=#000000;startArrow=classic;startFill=1;strokeWidth=2;endSize=4;startSize=4;" parent="21" source="2" target="3" edge="1">
          <mxGeometry relative="1" as="geometry" />
        </mxCell>
        <mxCell id="24" style="edgeStyle=orthogonalEdgeStyle;rounded=0;html=1;entryX=0.75;entryY=1;labelBackgroundColor=#ffffff;jettySize=auto;orthogonalLoop=1;strokeColor=#4277BB;fontColor=#000000;strokeWidth=2;endSize=4;startSize=4;startArrow=classic;startFill=1;" parent="21" source="11" target="5" edge="1">
          <mxGeometry relative="1" as="geometry" />
        </mxCell>
        <mxCell id="40" style="edgeStyle=orthogonalEdgeStyle;rounded=0;html=1;entryX=0.25;entryY=1;labelBackgroundColor=#ffffff;jettySize=auto;orthogonalLoop=1;strokeColor=#4277BB;fontColor=#000000;strokeWidth=2;endSize=4;startSize=4;startArrow=classic;startFill=1;" parent="21" source="4" target="5" edge="1">
          <mxGeometry relative="1" as="geometry" />
        </mxCell>
        <mxCell id="31" style="edgeStyle=orthogonalEdgeStyle;rounded=0;html=1;entryX=0.25;entryY=0;labelBackgroundColor=#ffffff;jettySize=auto;orthogonalLoop=1;strokeColor=#EDC11C;fontColor=#000000;startArrow=classic;strokeWidth=2;endSize=4;startSize=4;" parent="21" source="6" target="13" edge="1">
          <mxGeometry relative="1" as="geometry" />
        </mxCell>
        <mxCell id="32" style="edgeStyle=orthogonalEdgeStyle;rounded=0;html=1;entryX=0.75;entryY=0;labelBackgroundColor=#ffffff;jettySize=auto;orthogonalLoop=1;strokeColor=#EDC11C;fontColor=#000000;startArrow=classic;strokeWidth=2;endSize=4;startSize=4;" parent="21" source="6" target="5" edge="1">
          <mxGeometry relative="1" as="geometry">
            <Array as="points">
              <mxPoint x="243" y="95" />
            </Array>
          </mxGeometry>
        </mxCell>
        <mxCell id="27" style="edgeStyle=orthogonalEdgeStyle;rounded=0;html=1;labelBackgroundColor=#ffffff;jettySize=auto;orthogonalLoop=1;strokeColor=#4277BB;fontColor=#000000;strokeWidth=2;endSize=4;startSize=4;startArrow=classic;startFill=1;" parent="21" source="7" target="10" edge="1">
          <mxGeometry relative="1" as="geometry">
            <Array as="points">
              <mxPoint x="360" y="390" />
              <mxPoint x="690" y="390" />
            </Array>
          </mxGeometry>
        </mxCell>
        <mxCell id="29" style="edgeStyle=orthogonalEdgeStyle;rounded=0;html=1;labelBackgroundColor=#ffffff;jettySize=auto;orthogonalLoop=1;strokeColor=#EDC11C;fontColor=#000000;startArrow=classic;strokeWidth=2;endSize=4;startSize=4;" parent="21" source="7" target="10" edge="1">
          <mxGeometry relative="1" as="geometry">
            <Array as="points">
              <mxPoint x="360" y="210" />
              <mxPoint x="690" y="210" />
            </Array>
          </mxGeometry>
        </mxCell>
        <mxCell id="28" style="edgeStyle=orthogonalEdgeStyle;rounded=0;html=1;labelBackgroundColor=#ffffff;jettySize=auto;orthogonalLoop=1;strokeColor=#4277BB;fontColor=#000000;strokeWidth=2;endSize=4;startSize=4;startArrow=classic;startFill=1;" parent="21" source="8" target="9" edge="1">
          <mxGeometry relative="1" as="geometry">
            <Array as="points">
              <mxPoint x="470" y="390" />
              <mxPoint x="570" y="390" />
            </Array>
          </mxGeometry>
        </mxCell>
        <mxCell id="30" style="edgeStyle=orthogonalEdgeStyle;rounded=0;html=1;labelBackgroundColor=#ffffff;jettySize=auto;orthogonalLoop=1;strokeColor=#EDC11C;fontColor=#000000;startArrow=classic;strokeWidth=2;endSize=4;startSize=4;" parent="21" source="8" target="9" edge="1">
          <mxGeometry relative="1" as="geometry">
            <Array as="points">
              <mxPoint x="470" y="210" />
              <mxPoint x="570" y="210" />
            </Array>
          </mxGeometry>
        </mxCell>
        <mxCell id="26" style="edgeStyle=orthogonalEdgeStyle;rounded=0;html=1;labelBackgroundColor=#ffffff;jettySize=auto;orthogonalLoop=1;strokeColor=#4277BB;fontColor=#000000;entryX=0.75;entryY=1;strokeWidth=2;endSize=4;startSize=4;startArrow=classic;startFill=1;" parent="21" source="12" target="5" edge="1">
          <mxGeometry relative="1" as="geometry">
            <Array as="points">
              <mxPoint x="243" y="510" />
            </Array>
          </mxGeometry>
        </mxCell>
        <mxCell id="38" style="edgeStyle=orthogonalEdgeStyle;rounded=0;html=1;entryX=0.25;entryY=1;labelBackgroundColor=#ffffff;jettySize=auto;orthogonalLoop=1;strokeColor=#4277BB;fontColor=#000000;strokeWidth=2;endSize=4;startSize=4;startArrow=classic;startFill=1;" parent="21" source="12" target="13" edge="1">
          <mxGeometry relative="1" as="geometry" />
        </mxCell>
        <mxCell id="33" style="edgeStyle=orthogonalEdgeStyle;rounded=0;html=1;labelBackgroundColor=#ffffff;jettySize=auto;orthogonalLoop=1;strokeColor=#EDC11C;fontColor=#000000;startArrow=classic;strokeWidth=2;endSize=4;startSize=4;" parent="21" source="14" target="15" edge="1">
          <mxGeometry relative="1" as="geometry" />
        </mxCell>
        <mxCell id="34" style="edgeStyle=orthogonalEdgeStyle;rounded=0;html=1;entryX=1;entryY=0.25;labelBackgroundColor=#ffffff;jettySize=auto;orthogonalLoop=1;strokeColor=#EDC11C;fontColor=#000000;startArrow=classic;strokeWidth=2;endSize=4;startSize=4;" parent="21" source="14" target="13" edge="1">
          <mxGeometry relative="1" as="geometry">
            <mxPoint x="859.7058823529414" y="266.82352941176475" as="targetPoint" />
            <Array as="points">
              <mxPoint x="963" y="267" />
            </Array>
          </mxGeometry>
        </mxCell>
        <mxCell id="35" style="edgeStyle=orthogonalEdgeStyle;rounded=0;html=1;entryX=1;entryY=0.5;labelBackgroundColor=#ffffff;jettySize=auto;orthogonalLoop=1;strokeColor=#4277BB;fontColor=#000000;strokeWidth=2;endSize=4;startSize=4;" parent="21" source="16" target="13" edge="1">
          <mxGeometry relative="1" as="geometry">
            <mxPoint x="863.2352941176473" y="279.7647058823529" as="targetPoint" />
            <Array as="points">
              <mxPoint x="913" y="470" />
              <mxPoint x="913" y="280" />
            </Array>
          </mxGeometry>
        </mxCell>
        <mxCell id="37" style="edgeStyle=orthogonalEdgeStyle;rounded=0;html=1;labelBackgroundColor=#ffffff;jettySize=auto;orthogonalLoop=1;strokeColor=#4277BB;fontColor=#000000;strokeWidth=2;endSize=4;startSize=4;startArrow=classic;startFill=1;" parent="21" source="16" target="17" edge="1">
          <mxGeometry relative="1" as="geometry" />
        </mxCell>
        <mxCell id="36" style="edgeStyle=orthogonalEdgeStyle;rounded=0;html=1;entryX=1;entryY=0.75;labelBackgroundColor=#ffffff;jettySize=auto;orthogonalLoop=1;strokeColor=#4277BB;fontColor=#000000;strokeWidth=2;endSize=4;startSize=4;startArrow=classic;startFill=1;" parent="21" source="17" target="13" edge="1">
          <mxGeometry relative="1" as="geometry">
            <mxPoint x="859.7058823529414" y="292.7058823529412" as="targetPoint" />
            <Array as="points">
              <mxPoint x="893" y="620" />
              <mxPoint x="893" y="293" />
            </Array>
          </mxGeometry>
        </mxCell>
        <mxCell id="45" style="edgeStyle=orthogonalEdgeStyle;rounded=0;html=1;labelBackgroundColor=#ffffff;jettySize=auto;orthogonalLoop=1;strokeColor=#4277BB;fontSize=12;fontColor=#4277BB;strokeWidth=2;endSize=4;startSize=4;" parent="21" source="12" target="11" edge="1">
          <mxGeometry relative="1" as="geometry" />
        </mxCell>
        <mxCell id="2" value="CLOUD&lt;div&gt;USER&lt;/div&gt;" style="aspect=fixed;perimeter=ellipsePerimeter;html=1;align=center;shadow=0;dashed=0;image;image=img/lib/ibm/users/user.svg;strokeColor=#FF0000;fillColor=#FFFF66;gradientColor=none;fontColor=#4277BB;labelBackgroundColor=#ffffff;fontSize=12;spacingTop=3;" parent="21" vertex="1">
          <mxGeometry x="60" y="70" width="60" height="60" as="geometry" />
        </mxCell>
        <mxCell id="62" style="edgeStyle=orthogonalEdgeStyle;rounded=0;html=1;labelBackgroundColor=#ffffff;startArrow=classic;startFill=1;startSize=4;endSize=4;jettySize=auto;orthogonalLoop=1;strokeColor=#EDC11C;strokeWidth=2;fontSize=12;fontColor=#4277BB;" parent="21" source="3" target="5" edge="1">
          <mxGeometry relative="1" as="geometry">
            <Array as="points">
              <mxPoint x="90" y="170" />
            </Array>
          </mxGeometry>
        </mxCell>
        <mxCell id="3" value="SaaS&lt;div&gt;APPLICATIONS&lt;/div&gt;" style="aspect=fixed;perimeter=ellipsePerimeter;html=1;align=center;shadow=0;dashed=0;image;image=img/lib/ibm/applications/saas_applications.svg;strokeColor=#FF0000;fillColor=#FFFF66;gradientColor=none;fontColor=#4277BB;labelBackgroundColor=#ffffff;spacingTop=3;" parent="21" vertex="1">
          <mxGeometry x="60" y="190" width="60" height="60" as="geometry" />
        </mxCell>
        <mxCell id="4" value="INTERNAL&lt;div&gt;CHANNEL&lt;/div&gt;" style="aspect=fixed;perimeter=ellipsePerimeter;html=1;align=center;shadow=0;dashed=0;image;image=img/lib/ibm/data/data_sources.svg;strokeColor=#FF0000;fillColor=#FFFF66;gradientColor=none;fontColor=#4277BB;labelBackgroundColor=#ffffff;spacingTop=3;" parent="21" vertex="1">
          <mxGeometry x="60" y="330" width="60" height="60" as="geometry" />
        </mxCell>
        <mxCell id="5" value="EDGE&lt;div&gt;SERVICES&lt;/div&gt;" style="aspect=fixed;perimeter=ellipsePerimeter;html=1;align=center;shadow=0;dashed=0;image;image=img/lib/ibm/infrastructure/edge_services.svg;strokeColor=#FF0000;fillColor=#FFFF66;gradientColor=none;fontColor=#4277BB;labelBackgroundColor=#ffffff;spacingTop=3;" parent="21" vertex="1">
          <mxGeometry x="200" y="140" width="60" height="60" as="geometry" />
        </mxCell>
        <mxCell id="6" value="API&lt;div&gt;MANAGEMENT&lt;/div&gt;" style="aspect=fixed;perimeter=ellipsePerimeter;html=1;align=center;shadow=0;dashed=0;image;image=img/lib/ibm/management/api_management.svg;strokeColor=#FF0000;fillColor=#FFFF66;gradientColor=none;fontColor=#4277BB;labelBackgroundColor=#ffffff;spacingTop=3;" parent="21" vertex="1">
          <mxGeometry x="490" y="65" width="60" height="60" as="geometry" />
        </mxCell>
        <mxCell id="7" value="SaaS&lt;div&gt;APPLICATIONS&lt;/div&gt;" style="aspect=fixed;perimeter=ellipsePerimeter;html=1;align=center;shadow=0;dashed=0;image;image=img/lib/ibm/applications/saas_applications.svg;strokeColor=#FF0000;fillColor=#FFFF66;gradientColor=none;fontColor=#4277BB;labelBackgroundColor=#ffffff;spacingTop=3;" parent="21" vertex="1">
          <mxGeometry x="330" y="250" width="60" height="60" as="geometry" />
        </mxCell>
        <mxCell id="8" value="COGNITIVE&lt;div&gt;ANALYTICS&lt;/div&gt;&lt;div&gt;DISCOVERY &amp;amp;&lt;/div&gt;&lt;div&gt;EXPLORATION&lt;/div&gt;" style="aspect=fixed;perimeter=ellipsePerimeter;html=1;align=center;shadow=0;dashed=0;image;image=img/lib/ibm/analytics/analytics.svg;strokeColor=#FF0000;fillColor=#FFFF66;gradientColor=none;fontColor=#4277BB;labelBackgroundColor=#ffffff;spacingTop=3;" parent="21" vertex="1">
          <mxGeometry x="440" y="250" width="60" height="60" as="geometry" />
        </mxCell>
        <mxCell id="9" value="DATA&lt;div&gt;REPOSITORY&lt;/div&gt;" style="aspect=fixed;perimeter=ellipsePerimeter;html=1;align=center;shadow=0;dashed=0;image;image=img/lib/ibm/data/data_services.svg;strokeColor=#FF0000;fillColor=#FFFF66;gradientColor=none;fontColor=#4277BB;labelBackgroundColor=#ffffff;spacingTop=3;" parent="21" vertex="1">
          <mxGeometry x="540" y="250" width="60" height="60" as="geometry" />
        </mxCell>
        <mxCell id="10" value="COGNITIVE&lt;div&gt;ACTIONABLE&lt;/div&gt;&lt;div&gt;INSIGHTS&lt;/div&gt;" style="aspect=fixed;perimeter=ellipsePerimeter;html=1;align=center;shadow=0;dashed=0;image;image=img/lib/ibm/analytics/analytics.svg;strokeColor=#FF0000;fillColor=#FFFF66;gradientColor=none;fontColor=#4277BB;labelBackgroundColor=#ffffff;spacingTop=3;" parent="21" vertex="1">
          <mxGeometry x="660" y="250" width="60" height="60" as="geometry" />
        </mxCell>
        <mxCell id="11" value="STREAMING&lt;div&gt;COMPUTING&lt;/div&gt;" style="aspect=fixed;perimeter=ellipsePerimeter;html=1;align=center;shadow=0;dashed=0;image;image=img/lib/ibm/analytics/streaming_computing.svg;strokeColor=#FF0000;fillColor=#FFFF66;gradientColor=none;fontColor=#4277BB;labelBackgroundColor=#ffffff;spacingTop=3;" parent="21" vertex="1">
          <mxGeometry x="290" y="401" width="60" height="60" as="geometry" />
        </mxCell>
        <mxCell id="12" value="DATA&lt;div&gt;INTEGRATION&lt;/div&gt;" style="aspect=fixed;perimeter=ellipsePerimeter;html=1;align=center;shadow=0;dashed=0;image;image=img/lib/ibm/data/device_registry.svg;strokeColor=#FF0000;fillColor=#FFFF66;gradientColor=none;fontColor=#4277BB;labelBackgroundColor=#ffffff;spacingTop=3;" parent="21" vertex="1">
          <mxGeometry x="540" y="480" width="60" height="60" as="geometry" />
        </mxCell>
        <mxCell id="13" value="TRANSFORMATION &amp;amp;&lt;div&gt;CONNECTIVITY&lt;/div&gt;" style="aspect=fixed;perimeter=ellipsePerimeter;html=1;align=center;shadow=0;dashed=0;image;image=img/lib/ibm/infrastructure/transformation_connectivity.svg;strokeColor=#FF0000;fillColor=#FFFF66;gradientColor=none;fontColor=#4277BB;labelBackgroundColor=#ffffff;spacingTop=3;" parent="21" vertex="1">
          <mxGeometry x="790" y="250" width="60" height="60" as="geometry" />
        </mxCell>
        <mxCell id="14" value="ENTERPRISE&lt;div&gt;USER&lt;/div&gt;" style="aspect=fixed;perimeter=ellipsePerimeter;html=1;align=center;shadow=0;dashed=0;image;image=img/lib/ibm/users/user.svg;strokeColor=#FF0000;fillColor=#FFFF66;gradientColor=none;fontColor=#4277BB;labelBackgroundColor=#ffffff;spacingTop=3;" parent="21" vertex="1">
          <mxGeometry x="933" y="100" width="60" height="60" as="geometry" />
        </mxCell>
        <mxCell id="15" value="ENTERPRISE&lt;div&gt;APPLICATIONS&lt;/div&gt;" style="aspect=fixed;perimeter=ellipsePerimeter;html=1;align=center;shadow=0;dashed=0;image;image=img/lib/ibm/applications/enterprise_applications.svg;strokeColor=#FF0000;fillColor=#FFFF66;gradientColor=none;fontColor=#4277BB;labelBackgroundColor=#ffffff;spacingTop=3;" parent="21" vertex="1">
          <mxGeometry x="933" y="320" width="60" height="60" as="geometry" />
        </mxCell>
        <mxCell id="16" value="ENTERPRISE&lt;div&gt;DATA&lt;/div&gt;" style="aspect=fixed;perimeter=ellipsePerimeter;html=1;align=center;shadow=0;dashed=0;image;image=img/lib/ibm/data/enterprise_data.svg;strokeColor=#FF0000;fillColor=#FFFF66;gradientColor=none;fontColor=#4277BB;labelBackgroundColor=#ffffff;spacingTop=3;" parent="21" vertex="1">
          <mxGeometry x="933" y="440" width="60" height="60" as="geometry" />
        </mxCell>
        <mxCell id="17" value="ENTERPRISE&lt;div&gt;USER DIRECTORY&lt;/div&gt;" style="aspect=fixed;perimeter=ellipsePerimeter;html=1;align=center;shadow=0;dashed=0;image;image=img/lib/ibm/data/enterprise_user_directory.svg;strokeColor=#FF0000;fillColor=#FFFF66;gradientColor=none;fontColor=#4277BB;labelBackgroundColor=#ffffff;spacingTop=3;" parent="21" vertex="1">
          <mxGeometry x="933" y="590" width="60" height="60" as="geometry" />
        </mxCell>
        <mxCell id="39" value="" style="swimlane;shadow=0;labelBackgroundColor=#007FFF;strokeColor=#4277BB;fillColor=none;gradientColor=none;fontColor=#000000;align=right;collapsible=0;startSize=0;strokeWidth=3;" parent="21" vertex="1">
          <mxGeometry x="210" y="590" width="650" height="120" as="geometry" />
        </mxCell>
        <mxCell id="18" value="SECURITY" style="aspect=fixed;perimeter=ellipsePerimeter;html=1;align=center;shadow=0;dashed=0;image;image=img/lib/ibm/blockchain/certificate_authority.svg;strokeColor=#FF0000;fillColor=#FFFF66;gradientColor=none;fontColor=#4277BB;labelBackgroundColor=#ffffff;spacingTop=3;" parent="39" vertex="1">
          <mxGeometry x="170" y="10" width="60" height="60" as="geometry" />
        </mxCell>
        <mxCell id="19" value="INFORMATION&lt;div&gt;GOVERNANCE&lt;/div&gt;" style="aspect=fixed;perimeter=ellipsePerimeter;html=1;align=center;shadow=0;dashed=0;image;image=img/lib/ibm/management/information_governance.svg;strokeColor=#FF0000;fillColor=#FFFF66;gradientColor=none;fontColor=#4277BB;labelBackgroundColor=#ffffff;spacingTop=3;" parent="39" vertex="1">
          <mxGeometry x="330" y="10" width="60" height="60" as="geometry" />
        </mxCell>
        <mxCell id="20" value="SYSTEMS&lt;div&gt;MANAGEMENT&lt;/div&gt;" style="aspect=fixed;perimeter=ellipsePerimeter;html=1;align=center;shadow=0;dashed=0;image;image=img/lib/ibm/management/cluster_management.svg;strokeColor=#FF0000;fillColor=#FFFF66;gradientColor=none;fontColor=#4277BB;labelBackgroundColor=#ffffff;spacingTop=3;" parent="39" vertex="1">
          <mxGeometry x="497" y="10" width="60" height="60" as="geometry" />
        </mxCell>
        <mxCell id="22" value="PUBLIC NETWORK" style="text;html=1;align=left;verticalAlign=middle;fontColor=#4277BB;shadow=0;dashed=0;strokeColor=none;fillColor=none;labelBackgroundColor=none;fontStyle=1;fontSize=14;spacingLeft=5;" parent="21" vertex="1">
          <mxGeometry y="10" width="150" height="20" as="geometry" />
        </mxCell>
        <mxCell id="43" value="" style="line;strokeWidth=3;direction=south;html=1;shadow=0;labelBackgroundColor=none;fillColor=none;gradientColor=none;fontSize=12;fontColor=#4277BB;align=right;strokeColor=#4277BB;" parent="21" vertex="1">
          <mxGeometry x="225" width="10" height="130" as="geometry" />
        </mxCell>
        <mxCell id="44" value="" style="line;strokeWidth=3;direction=south;html=1;shadow=0;labelBackgroundColor=none;fillColor=none;gradientColor=none;fontSize=12;fontColor=#4277BB;align=right;strokeColor=#4277BB;" parent="21" vertex="1">
          <mxGeometry x="225" y="240" width="10" height="350" as="geometry" />
        </mxCell>
        <mxCell id="46" value="" style="line;strokeWidth=3;direction=south;html=1;shadow=0;labelBackgroundColor=none;fillColor=none;gradientColor=none;fontSize=12;fontColor=#4277BB;align=right;strokeColor=#4277BB;" parent="21" vertex="1">
          <mxGeometry x="820" y="350" width="10" height="240" as="geometry" />
        </mxCell>
        <mxCell id="47" value="" style="line;strokeWidth=3;direction=south;html=1;shadow=0;labelBackgroundColor=none;fillColor=none;gradientColor=none;fontSize=12;fontColor=#4277BB;align=right;strokeColor=#4277BB;" parent="21" vertex="1">
          <mxGeometry x="820" width="10" height="240" as="geometry" />
        </mxCell>
        <mxCell id="48" value="PROVIDER CLOUD" style="text;html=1;align=left;verticalAlign=middle;fontColor=#4277BB;shadow=0;dashed=0;strokeColor=none;fillColor=none;labelBackgroundColor=none;fontStyle=1;fontSize=14;spacingLeft=5;" parent="21" vertex="1">
          <mxGeometry x="230" y="10" width="150" height="20" as="geometry" />
        </mxCell>
        <mxCell id="49" value="ENTERPRISE NETWORK" style="text;html=1;align=left;verticalAlign=middle;fontColor=#4277BB;shadow=0;dashed=0;strokeColor=none;fillColor=none;labelBackgroundColor=none;fontStyle=1;fontSize=14;spacingLeft=5;" parent="21" vertex="1">
          <mxGeometry x="825" y="10" width="185" height="20" as="geometry" />
        </mxCell>
        <mxCell id="50" value="Application component" style="rounded=0;html=1;shadow=0;labelBackgroundColor=none;strokeColor=none;strokeWidth=2;fillColor=#EBC01A;gradientColor=none;fontSize=12;fontColor=#4277BB;align=left;labelPosition=right;verticalLabelPosition=middle;verticalAlign=middle;spacingLeft=5;" parent="21" vertex="1">
          <mxGeometry x="20" y="580" width="20" height="10" as="geometry" />
        </mxCell>
        <mxCell id="51" value="Infrastructure services" style="rounded=0;html=1;shadow=0;labelBackgroundColor=none;strokeColor=none;strokeWidth=2;fillColor=#8DC642;gradientColor=none;fontSize=12;fontColor=#4277BB;align=left;labelPosition=right;verticalLabelPosition=middle;verticalAlign=middle;spacingLeft=5;" parent="21" vertex="1">
          <mxGeometry x="20" y="600" width="20" height="10" as="geometry" />
        </mxCell>
        <mxCell id="52" value="Management" style="rounded=0;html=1;shadow=0;labelBackgroundColor=none;strokeColor=none;strokeWidth=2;fillColor=#0DB39D;gradientColor=none;fontSize=12;fontColor=#4277BB;align=left;labelPosition=right;verticalLabelPosition=middle;verticalAlign=middle;spacingLeft=5;" parent="21" vertex="1">
          <mxGeometry x="20" y="620" width="20" height="10" as="geometry" />
        </mxCell>
        <mxCell id="53" value="Data store" style="rounded=0;html=1;shadow=0;labelBackgroundColor=none;strokeColor=none;strokeWidth=2;fillColor=#335D81;gradientColor=none;fontSize=12;fontColor=#4277BB;align=left;labelPosition=right;verticalLabelPosition=middle;verticalAlign=middle;spacingLeft=5;" parent="21" vertex="1">
          <mxGeometry x="20" y="640" width="20" height="10" as="geometry" />
        </mxCell>
        <mxCell id="54" value="Analytics" style="rounded=0;html=1;shadow=0;labelBackgroundColor=none;strokeColor=none;strokeWidth=2;fillColor=#744399;gradientColor=none;fontSize=12;fontColor=#4277BB;align=left;labelPosition=right;verticalLabelPosition=middle;verticalAlign=middle;spacingLeft=5;" parent="21" vertex="1">
          <mxGeometry x="20" y="660" width="20" height="10" as="geometry" />
        </mxCell>
        <mxCell id="55" value="Device capabilities" style="rounded=0;html=1;shadow=0;labelBackgroundColor=none;strokeColor=none;strokeWidth=2;fillColor=#A72870;gradientColor=none;fontSize=12;fontColor=#4277BB;align=left;labelPosition=right;verticalLabelPosition=middle;verticalAlign=middle;spacingLeft=5;" parent="21" vertex="1">
          <mxGeometry x="20" y="680" width="20" height="10" as="geometry" />
        </mxCell>
        <mxCell id="56" value="Security" style="rounded=0;html=1;shadow=0;labelBackgroundColor=none;strokeColor=none;strokeWidth=2;fillColor=#E52134;gradientColor=none;fontSize=12;fontColor=#4277BB;align=left;labelPosition=right;verticalLabelPosition=middle;verticalAlign=middle;spacingLeft=5;" parent="21" vertex="1">
          <mxGeometry x="20" y="700" width="20" height="10" as="geometry" />
        </mxCell>
        <mxCell id="59" value="LEGEND" style="text;html=1;align=left;verticalAlign=middle;fontColor=#4277BB;shadow=0;dashed=0;strokeColor=none;fillColor=none;labelBackgroundColor=none;fontStyle=1;fontSize=14;spacingLeft=0;" parent="21" vertex="1">
          <mxGeometry x="20" y="550" width="150" height="20" as="geometry" />
        </mxCell>
      </root>
    </mxGraphModel>
  </diagram>
  <diagram id="8wBUcfGZ9-eBS510xM7x" name="智能镜子">
    <mxGraphModel dx="946" dy="614" grid="1" gridSize="10" guides="1" tooltips="1" connect="1" arrows="1" fold="1" page="1" pageScale="1" pageWidth="827" pageHeight="1169" math="0" shadow="0">
      <root>
        <mxCell id="JmzdkzykC9fFSLNEvdhZ-0" />
        <mxCell id="JmzdkzykC9fFSLNEvdhZ-1" parent="JmzdkzykC9fFSLNEvdhZ-0" />
        <mxCell id="JmzdkzykC9fFSLNEvdhZ-35" value="&lt;font style=&quot;font-size: 22px&quot;&gt;云服务&lt;/font&gt;" style="fontStyle=0;verticalAlign=top;align=center;spacingTop=-2;fillColor=#dae8fc;rounded=0;whiteSpace=wrap;html=1;strokeColor=#6c8ebf;strokeWidth=2;dashed=1;container=1;collapsible=0;expand=0;recursiveResize=0;" parent="JmzdkzykC9fFSLNEvdhZ-1" vertex="1">
          <mxGeometry x="293.96" y="10" width="424" height="310" as="geometry" />
        </mxCell>
        <mxCell id="3MUPXgiY7HCNY_gZlKSx-5" value="&lt;span style=&quot;&quot;&gt;&lt;font style=&quot;font-size: 16px&quot;&gt;专家妆容&lt;/font&gt;&lt;span style=&quot;font-size: 16px&quot;&gt;推荐系统&lt;/span&gt;&lt;/span&gt;" style="aspect=fixed;perimeter=ellipsePerimeter;html=1;align=center;shadow=0;dashed=0;image;image=img/lib/ibm/management/api_management.svg;strokeColor=#FF0000;fillColor=#FFFF66;gradientColor=none;fontColor=#4277BB;labelBackgroundColor=none;spacingTop=3;" parent="JmzdkzykC9fFSLNEvdhZ-35" vertex="1">
          <mxGeometry x="44" y="20" width="60" height="60" as="geometry" />
        </mxCell>
        <mxCell id="3MUPXgiY7HCNY_gZlKSx-0" value="&lt;font style=&quot;font-size: 16px;&quot;&gt;专家发型&lt;/font&gt;&lt;span style=&quot;font-size: 16px;&quot;&gt;推荐系统&lt;br&gt;&lt;/span&gt;" style="aspect=fixed;perimeter=ellipsePerimeter;html=1;align=center;shadow=0;dashed=0;image;image=img/lib/ibm/management/api_management.svg;strokeColor=#FF0000;fillColor=#FFFF66;gradientColor=none;fontColor=#4277BB;labelBackgroundColor=none;spacingTop=3;" parent="JmzdkzykC9fFSLNEvdhZ-35" vertex="1">
          <mxGeometry x="324" y="20" width="60" height="60" as="geometry" />
        </mxCell>
        <mxCell id="1_CB5YIRKp49CMsrbgKF-7" style="rounded=0;orthogonalLoop=1;jettySize=auto;html=1;fontSize=16;startArrow=none;startFill=0;endArrow=classic;endFill=1;elbow=vertical;entryX=0;entryY=0.75;entryDx=0;entryDy=0;" parent="JmzdkzykC9fFSLNEvdhZ-35" source="JmzdkzykC9fFSLNEvdhZ-16" target="3MUPXgiY7HCNY_gZlKSx-0" edge="1">
          <mxGeometry relative="1" as="geometry" />
        </mxCell>
        <mxCell id="1_CB5YIRKp49CMsrbgKF-8" style="rounded=0;orthogonalLoop=1;jettySize=auto;html=1;entryX=0;entryY=0;entryDx=0;entryDy=0;fontSize=16;startArrow=none;startFill=0;endArrow=classic;endFill=1;elbow=vertical;" parent="JmzdkzykC9fFSLNEvdhZ-35" source="JmzdkzykC9fFSLNEvdhZ-16" edge="1">
          <mxGeometry relative="1" as="geometry">
            <mxPoint x="333.1122112284282" y="208.61221122842812" as="targetPoint" />
          </mxGeometry>
        </mxCell>
        <mxCell id="1_CB5YIRKp49CMsrbgKF-9" style="rounded=0;orthogonalLoop=1;jettySize=auto;html=1;fontSize=16;startArrow=none;startFill=0;endArrow=classic;endFill=1;elbow=vertical;entryX=1;entryY=0.75;entryDx=0;entryDy=0;" parent="JmzdkzykC9fFSLNEvdhZ-35" source="JmzdkzykC9fFSLNEvdhZ-16" target="3MUPXgiY7HCNY_gZlKSx-5" edge="1">
          <mxGeometry relative="1" as="geometry">
            <mxPoint x="94" y="60" as="targetPoint" />
          </mxGeometry>
        </mxCell>
        <mxCell id="1_CB5YIRKp49CMsrbgKF-10" style="rounded=0;orthogonalLoop=1;jettySize=auto;html=1;fontSize=16;startArrow=none;startFill=0;endArrow=classic;endFill=1;elbow=vertical;" parent="JmzdkzykC9fFSLNEvdhZ-35" source="JmzdkzykC9fFSLNEvdhZ-16" edge="1">
          <mxGeometry relative="1" as="geometry">
            <mxPoint x="96.04000000000002" y="217" as="targetPoint" />
          </mxGeometry>
        </mxCell>
        <mxCell id="JmzdkzykC9fFSLNEvdhZ-16" value="&lt;span style=&quot;font-size: 16px ; background-color: rgb(218 , 232 , 252)&quot;&gt;云数据库&lt;/span&gt;" style="aspect=fixed;perimeter=ellipsePerimeter;html=1;align=center;shadow=0;fontColor=#4277BB;labelBackgroundColor=#DAE8FC;fontSize=12;spacingTop=3;image;image=img/lib/ibm/data/data_sources.svg;imageBackground=none;imageBorder=none;labelBorderColor=none;" parent="JmzdkzykC9fFSLNEvdhZ-35" vertex="1">
          <mxGeometry x="181" y="110" width="60" height="60" as="geometry" />
        </mxCell>
        <mxCell id="xeEUTuzgRsBn7caT7KYq-0" value="发型学习系统" style="aspect=fixed;perimeter=ellipsePerimeter;html=1;align=center;shadow=0;dashed=0;image;image=img/lib/ibm/infrastructure/transformation_connectivity.svg;strokeColor=#FF0000;fillColor=#FFFF66;gradientColor=none;fontColor=#4277BB;labelBackgroundColor=#DAE8FC;spacingTop=3;fontSize=16;" vertex="1" parent="JmzdkzykC9fFSLNEvdhZ-35">
          <mxGeometry x="46.04000000000002" y="200" width="60" height="60" as="geometry" />
        </mxCell>
        <mxCell id="xeEUTuzgRsBn7caT7KYq-1" value="&lt;span style=&quot;&quot;&gt;妆容学习系统&lt;/span&gt;" style="aspect=fixed;perimeter=ellipsePerimeter;html=1;align=center;shadow=0;dashed=0;image;image=img/lib/ibm/infrastructure/transformation_connectivity.svg;strokeColor=#FF0000;fillColor=#FFFF66;gradientColor=none;fontColor=#4277BB;labelBackgroundColor=#DAE8FC;spacingTop=3;fontSize=16;" vertex="1" parent="JmzdkzykC9fFSLNEvdhZ-35">
          <mxGeometry x="324.00000000000006" y="200" width="60" height="60" as="geometry" />
        </mxCell>
        <mxCell id="JmzdkzykC9fFSLNEvdhZ-2" value="&lt;font style=&quot;font-size: 22px&quot;&gt;微处理器&lt;/font&gt;" style="fontStyle=0;verticalAlign=top;align=center;spacingTop=-2;fillColor=#d5e8d4;rounded=0;whiteSpace=wrap;html=1;strokeColor=#82b366;strokeWidth=2;dashed=1;container=1;collapsible=0;expand=0;recursiveResize=0;" parent="JmzdkzykC9fFSLNEvdhZ-1" vertex="1">
          <mxGeometry x="30" y="399" width="690" height="237" as="geometry" />
        </mxCell>
        <mxCell id="JmzdkzykC9fFSLNEvdhZ-5" style="edgeStyle=orthogonalEdgeStyle;rounded=0;orthogonalLoop=1;jettySize=auto;html=1;entryX=0.5;entryY=0;entryDx=0;entryDy=0;startArrow=classic;startFill=1;endArrow=none;endFill=0;" parent="JmzdkzykC9fFSLNEvdhZ-2" source="JmzdkzykC9fFSLNEvdhZ-3" target="JmzdkzykC9fFSLNEvdhZ-4" edge="1">
          <mxGeometry relative="1" as="geometry" />
        </mxCell>
        <mxCell id="JmzdkzykC9fFSLNEvdhZ-4" value="&lt;font style=&quot;font-size: 16px ; background-color: rgb(213 , 232 , 212)&quot;&gt;智能镜中控&lt;/font&gt;" style="aspect=fixed;perimeter=ellipsePerimeter;html=1;align=center;shadow=0;dashed=0;fontColor=#4277BB;labelBackgroundColor=none;fontSize=16;spacingTop=3;image;image=img/lib/ibm/blockchain/services.svg;" parent="JmzdkzykC9fFSLNEvdhZ-2" vertex="1">
          <mxGeometry x="220" y="126" width="60" height="60" as="geometry" />
        </mxCell>
        <mxCell id="1_CB5YIRKp49CMsrbgKF-2" style="edgeStyle=orthogonalEdgeStyle;rounded=0;orthogonalLoop=1;jettySize=auto;html=1;exitX=0.5;exitY=1;exitDx=0;exitDy=0;entryX=0.508;entryY=0.867;entryDx=0;entryDy=0;entryPerimeter=0;fontSize=16;startArrow=none;startFill=0;endArrow=classic;endFill=1;elbow=vertical;" parent="JmzdkzykC9fFSLNEvdhZ-2" edge="1">
          <mxGeometry relative="1" as="geometry">
            <mxPoint x="440" y="110" as="sourcePoint" />
            <mxPoint x="440.48" y="102.01999999999998" as="targetPoint" />
          </mxGeometry>
        </mxCell>
        <mxCell id="1_CB5YIRKp49CMsrbgKF-5" value="&lt;span style=&quot;background-color: rgb(213 , 232 , 212)&quot;&gt;发型生成模型&lt;/span&gt;" style="aspect=fixed;perimeter=ellipsePerimeter;html=1;align=center;shadow=0;dashed=0;fontColor=#4277BB;labelBackgroundColor=none;fontSize=16;spacingTop=3;image;image=img/lib/ibm/management/cloud_management.svg;strokeColor=default;fillColor=none;strokeWidth=1;imageBorder=none;" parent="JmzdkzykC9fFSLNEvdhZ-2" vertex="1">
          <mxGeometry x="420" y="51" width="60" height="60" as="geometry" />
        </mxCell>
        <mxCell id="1_CB5YIRKp49CMsrbgKF-6" value="&lt;span style=&quot;background-color: rgb(213 , 232 , 212)&quot;&gt;妆容生成模型&lt;/span&gt;" style="aspect=fixed;perimeter=ellipsePerimeter;html=1;align=center;shadow=0;dashed=0;fontColor=#4277BB;labelBackgroundColor=#ffffff;fontSize=16;spacingTop=3;image;image=img/lib/ibm/management/cloud_management.svg;strokeColor=default;fillColor=none;" parent="JmzdkzykC9fFSLNEvdhZ-2" vertex="1">
          <mxGeometry x="587" y="51" width="58" height="60" as="geometry" />
        </mxCell>
        <mxCell id="1_CB5YIRKp49CMsrbgKF-21" style="edgeStyle=none;rounded=0;orthogonalLoop=1;jettySize=auto;html=1;fontSize=16;startArrow=none;startFill=0;endArrow=classic;endFill=1;elbow=vertical;" parent="JmzdkzykC9fFSLNEvdhZ-2" source="JmzdkzykC9fFSLNEvdhZ-9" target="JmzdkzykC9fFSLNEvdhZ-4" edge="1">
          <mxGeometry relative="1" as="geometry" />
        </mxCell>
        <mxCell id="JmzdkzykC9fFSLNEvdhZ-9" value="&lt;font style=&quot;font-size: 16px ; background-color: rgb(213 , 232 , 212)&quot;&gt;语音识别&lt;/font&gt;" style="aspect=fixed;perimeter=ellipsePerimeter;html=1;align=center;shadow=0;dashed=0;fontColor=#4277BB;labelBackgroundColor=#ffffff;fontSize=12;spacingTop=3;image;image=img/lib/ibm/infrastructure/microservices_mesh.svg;" parent="JmzdkzykC9fFSLNEvdhZ-2" vertex="1">
          <mxGeometry x="50" y="125" width="60" height="60" as="geometry" />
        </mxCell>
        <mxCell id="1_CB5YIRKp49CMsrbgKF-19" style="edgeStyle=none;rounded=0;orthogonalLoop=1;jettySize=auto;html=1;exitX=0;exitY=0.75;exitDx=0;exitDy=0;fontSize=16;startArrow=none;startFill=0;endArrow=classic;endFill=1;elbow=vertical;" parent="JmzdkzykC9fFSLNEvdhZ-2" source="JmzdkzykC9fFSLNEvdhZ-4" target="JmzdkzykC9fFSLNEvdhZ-4" edge="1">
          <mxGeometry relative="1" as="geometry" />
        </mxCell>
        <mxCell id="JmzdkzykC9fFSLNEvdhZ-3" value="&lt;font style=&quot;font-size: 16px ; background-color: rgb(213 , 232 , 212)&quot;&gt;手势、头部动作识别&lt;/font&gt;" style="aspect=fixed;perimeter=ellipsePerimeter;html=1;align=center;shadow=0;dashed=0;fontColor=#4277BB;labelBackgroundColor=#D5E8D4;fontSize=12;spacingTop=3;image;image=img/lib/ibm/analytics/streaming_computing.svg;" parent="JmzdkzykC9fFSLNEvdhZ-2" vertex="1">
          <mxGeometry x="50" y="20" width="60" height="60" as="geometry" />
        </mxCell>
        <mxCell id="JmzdkzykC9fFSLNEvdhZ-50" value="" style="edgeStyle=orthogonalEdgeStyle;rounded=0;orthogonalLoop=1;jettySize=auto;html=1;fontSize=16;endArrow=none;endFill=0;startArrow=classic;startFill=1;" parent="JmzdkzykC9fFSLNEvdhZ-1" source="JmzdkzykC9fFSLNEvdhZ-6" target="JmzdkzykC9fFSLNEvdhZ-3" edge="1">
          <mxGeometry relative="1" as="geometry" />
        </mxCell>
        <mxCell id="jWw5XonG6MBjL7Fk8Ezb-12" style="edgeStyle=orthogonalEdgeStyle;rounded=0;orthogonalLoop=1;jettySize=auto;html=1;fontSize=16;startArrow=none;startFill=0;endArrow=classic;endFill=1;elbow=vertical;" parent="JmzdkzykC9fFSLNEvdhZ-1" source="JmzdkzykC9fFSLNEvdhZ-6" target="JmzdkzykC9fFSLNEvdhZ-17" edge="1">
          <mxGeometry relative="1" as="geometry" />
        </mxCell>
        <mxCell id="JmzdkzykC9fFSLNEvdhZ-6" value="&lt;font style=&quot;font-size: 16px&quot;&gt;视像采集&lt;/font&gt;" style="aspect=fixed;perimeter=ellipsePerimeter;html=1;align=center;shadow=0;dashed=0;fontColor=#4277BB;labelBackgroundColor=#ffffff;fontSize=12;spacingTop=3;image;image=img/lib/ibm/infrastructure/monitoring.svg;" parent="JmzdkzykC9fFSLNEvdhZ-1" vertex="1">
          <mxGeometry x="80" y="120" width="60" height="60" as="geometry" />
        </mxCell>
        <mxCell id="JmzdkzykC9fFSLNEvdhZ-10" style="edgeStyle=orthogonalEdgeStyle;rounded=0;orthogonalLoop=1;jettySize=auto;html=1;" parent="JmzdkzykC9fFSLNEvdhZ-1" source="JmzdkzykC9fFSLNEvdhZ-8" target="JmzdkzykC9fFSLNEvdhZ-9" edge="1">
          <mxGeometry relative="1" as="geometry" />
        </mxCell>
        <mxCell id="JmzdkzykC9fFSLNEvdhZ-8" value="&lt;font style=&quot;font-size: 16px&quot;&gt;语音采集&lt;/font&gt;" style="aspect=fixed;perimeter=ellipsePerimeter;html=1;align=center;shadow=0;dashed=0;fontColor=#4277BB;labelBackgroundColor=#ffffff;fontSize=16;spacingTop=3;image;image=img/lib/ibm/applications/speech_to_text.svg;" parent="JmzdkzykC9fFSLNEvdhZ-1" vertex="1">
          <mxGeometry x="76" y="680" width="69.23" height="60" as="geometry" />
        </mxCell>
        <mxCell id="1_CB5YIRKp49CMsrbgKF-20" style="edgeStyle=none;rounded=0;orthogonalLoop=1;jettySize=auto;html=1;entryX=0.5;entryY=1;entryDx=0;entryDy=0;fontSize=16;startArrow=none;startFill=0;endArrow=classic;endFill=1;elbow=vertical;" parent="JmzdkzykC9fFSLNEvdhZ-1" source="JmzdkzykC9fFSLNEvdhZ-12" target="JmzdkzykC9fFSLNEvdhZ-4" edge="1">
          <mxGeometry relative="1" as="geometry" />
        </mxCell>
        <mxCell id="JmzdkzykC9fFSLNEvdhZ-12" value="&lt;font style=&quot;font-size: 16px&quot;&gt;触屏操作&lt;/font&gt;" style="aspect=fixed;perimeter=ellipsePerimeter;html=1;align=center;shadow=0;dashed=0;fontColor=#4277BB;labelBackgroundColor=#ffffff;fontSize=12;spacingTop=3;image;image=img/lib/ibm/users/user.svg;" parent="JmzdkzykC9fFSLNEvdhZ-1" vertex="1">
          <mxGeometry x="250" y="680" width="60" height="60" as="geometry" />
        </mxCell>
        <mxCell id="1_CB5YIRKp49CMsrbgKF-22" style="edgeStyle=none;rounded=0;orthogonalLoop=1;jettySize=auto;html=1;entryX=0.78;entryY=1;entryDx=0;entryDy=0;entryPerimeter=0;fontSize=16;startArrow=block;startFill=1;endArrow=none;endFill=0;elbow=vertical;strokeWidth=2;" parent="JmzdkzykC9fFSLNEvdhZ-1" source="JmzdkzykC9fFSLNEvdhZ-24" target="JmzdkzykC9fFSLNEvdhZ-2" edge="1">
          <mxGeometry relative="1" as="geometry" />
        </mxCell>
        <mxCell id="JmzdkzykC9fFSLNEvdhZ-24" value="&lt;font style=&quot;font-size: 16px&quot;&gt;妆容、发型展现&lt;/font&gt;" style="aspect=fixed;perimeter=ellipsePerimeter;html=1;align=center;shadow=0;dashed=0;fontColor=#4277BB;labelBackgroundColor=#ffffff;fontSize=12;spacingTop=3;image;image=img/lib/ibm/users/browser.svg;" parent="JmzdkzykC9fFSLNEvdhZ-1" vertex="1">
          <mxGeometry x="500" y="661" width="136" height="133.73" as="geometry" />
        </mxCell>
        <mxCell id="1_CB5YIRKp49CMsrbgKF-15" style="edgeStyle=none;rounded=0;orthogonalLoop=1;jettySize=auto;html=1;fontSize=16;startArrow=none;startFill=0;endArrow=classic;endFill=1;elbow=vertical;" parent="JmzdkzykC9fFSLNEvdhZ-1" source="JmzdkzykC9fFSLNEvdhZ-39" target="1_CB5YIRKp49CMsrbgKF-5" edge="1">
          <mxGeometry relative="1" as="geometry" />
        </mxCell>
        <mxCell id="JmzdkzykC9fFSLNEvdhZ-39" value="" style="aspect=fixed;perimeter=ellipsePerimeter;html=1;align=center;shadow=0;dashed=0;fontColor=#4277BB;labelBackgroundColor=#ffffff;fontSize=12;spacingTop=3;image;image=img/lib/ibm/miscellaneous/iot_cloud.svg;fillColor=#66B2FF;imageBackground=none;" parent="JmzdkzykC9fFSLNEvdhZ-1" vertex="1">
          <mxGeometry x="460" y="350" width="38.96" height="30" as="geometry" />
        </mxCell>
        <mxCell id="1_CB5YIRKp49CMsrbgKF-14" style="edgeStyle=none;rounded=0;orthogonalLoop=1;jettySize=auto;html=1;fontSize=16;startArrow=none;startFill=0;endArrow=classic;endFill=1;elbow=vertical;" parent="JmzdkzykC9fFSLNEvdhZ-1" source="JmzdkzykC9fFSLNEvdhZ-46" target="1_CB5YIRKp49CMsrbgKF-6" edge="1">
          <mxGeometry relative="1" as="geometry" />
        </mxCell>
        <mxCell id="JmzdkzykC9fFSLNEvdhZ-46" value="" style="aspect=fixed;perimeter=ellipsePerimeter;html=1;align=center;shadow=0;dashed=0;fontColor=#4277BB;labelBackgroundColor=#ffffff;fontSize=12;spacingTop=3;image;image=img/lib/ibm/miscellaneous/iot_cloud.svg;fillColor=#66B2FF;imageBackground=none;" parent="JmzdkzykC9fFSLNEvdhZ-1" vertex="1">
          <mxGeometry x="626.52" y="350" width="38.96" height="30" as="geometry" />
        </mxCell>
        <mxCell id="jWw5XonG6MBjL7Fk8Ezb-10" style="edgeStyle=orthogonalEdgeStyle;rounded=0;orthogonalLoop=1;jettySize=auto;html=1;exitX=1;exitY=0.5;exitDx=0;exitDy=0;entryX=0;entryY=0.5;entryDx=0;entryDy=0;fontSize=16;startArrow=none;startFill=0;endArrow=classic;endFill=1;elbow=vertical;" parent="JmzdkzykC9fFSLNEvdhZ-1" source="JmzdkzykC9fFSLNEvdhZ-36" target="JmzdkzykC9fFSLNEvdhZ-16" edge="1">
          <mxGeometry relative="1" as="geometry" />
        </mxCell>
        <mxCell id="JmzdkzykC9fFSLNEvdhZ-17" value="&lt;font style=&quot;font-size: 16px ; background-color: rgb(255 , 255 , 255)&quot;&gt;是否上传图像&lt;/font&gt;" style="aspect=fixed;perimeter=ellipsePerimeter;html=1;align=center;shadow=0;dashed=0;fontColor=#4277BB;labelBackgroundColor=#ffffff;fontSize=12;spacingTop=3;image;image=img/lib/ibm/vpc/Router.svg;" parent="JmzdkzykC9fFSLNEvdhZ-1" vertex="1">
          <mxGeometry x="181" y="130" width="38.71" height="40" as="geometry" />
        </mxCell>
        <mxCell id="JmzdkzykC9fFSLNEvdhZ-36" value="" style="aspect=fixed;perimeter=ellipsePerimeter;html=1;align=center;shadow=0;dashed=0;fontColor=#4277BB;labelBackgroundColor=#ffffff;fontSize=12;spacingTop=3;image;image=img/lib/ibm/miscellaneous/iot_cloud.svg;fillColor=#66B2FF;imageBackground=none;" parent="JmzdkzykC9fFSLNEvdhZ-1" vertex="1">
          <mxGeometry x="246" y="135" width="38.96" height="30" as="geometry" />
        </mxCell>
        <mxCell id="jWw5XonG6MBjL7Fk8Ezb-11" value="" style="edgeStyle=orthogonalEdgeStyle;rounded=0;orthogonalLoop=1;jettySize=auto;html=1;exitX=1;exitY=0.5;exitDx=0;exitDy=0;entryX=0;entryY=0.5;entryDx=0;entryDy=0;fontSize=16;startArrow=none;startFill=0;endArrow=none;endFill=1;elbow=vertical;" parent="JmzdkzykC9fFSLNEvdhZ-1" source="JmzdkzykC9fFSLNEvdhZ-17" target="JmzdkzykC9fFSLNEvdhZ-36" edge="1">
          <mxGeometry relative="1" as="geometry">
            <mxPoint x="255" y="150" as="sourcePoint" />
            <mxPoint x="360" y="150" as="targetPoint" />
          </mxGeometry>
        </mxCell>
        <mxCell id="1_CB5YIRKp49CMsrbgKF-12" style="edgeStyle=orthogonalEdgeStyle;rounded=0;orthogonalLoop=1;jettySize=auto;html=1;entryX=0.5;entryY=0;entryDx=0;entryDy=0;fontSize=16;startArrow=none;startFill=0;endArrow=classic;endFill=1;elbow=vertical;" parent="JmzdkzykC9fFSLNEvdhZ-1" target="JmzdkzykC9fFSLNEvdhZ-39" edge="1">
          <mxGeometry relative="1" as="geometry">
            <mxPoint x="397.96000000000004" y="240" as="sourcePoint" />
          </mxGeometry>
        </mxCell>
        <mxCell id="1_CB5YIRKp49CMsrbgKF-13" style="edgeStyle=none;rounded=0;orthogonalLoop=1;jettySize=auto;html=1;entryX=0.5;entryY=0;entryDx=0;entryDy=0;fontSize=16;startArrow=none;startFill=0;endArrow=classic;endFill=1;elbow=vertical;" parent="JmzdkzykC9fFSLNEvdhZ-1" target="JmzdkzykC9fFSLNEvdhZ-46" edge="1">
          <mxGeometry relative="1" as="geometry">
            <mxPoint x="647.9146326597856" y="269.99520371179096" as="sourcePoint" />
          </mxGeometry>
        </mxCell>
      </root>
    </mxGraphModel>
  </diagram>
</mxfile>
